<svg xmlns="http://www.w3.org/2000/svg" viewBox="0 0 400 400">
    <!-- Light mode styles -->
    <style>
        .bg-light { fill: #4e555e; }
        .border-light { fill: none; stroke: #e0e0e0; stroke-width: 8; }
        .node-light { fill: #ffffff; }
        .path-light { fill: none; stroke: #ffffff; stroke-width: 4; stroke-dasharray: 8 4; }
        .arrow-light { fill: #ffffff; }

        /* Dark mode styles */
        .bg-dark { fill: #e0e0e0; }
        .border-dark { fill: none; stroke: #4e555e; stroke-width: 8; }
        .node-dark { fill: #4e555e; }
        .path-dark { fill: none; stroke: #4e555e; stroke-width: 4; stroke-dasharray: 8 4; }
        .arrow-dark { fill: #4e555e; }

        /* Hide dark mode by default */
        .dark-mode { display: none; }
    </style>

    <!-- Light mode elements -->
    <g class="light-mode">
        <!-- Rounded square background -->
        <rect class="bg-light" x="20" y="20" width="360" height="360" rx="70" ry="70" />
        <!-- Border -->
        <rect class="border-light" x="20" y="20" width="360" height="360" rx="70" ry="70" />

        <!-- Node boxes -->
        <rect class="node-light" x="130" y="250" width="60" height="60" rx="10" ry="10" />
        <rect class="node-light" x="240" y="250" width="60" height="60" rx="10" ry="10" />
        <rect class="node-light" x="130" y="140" width="60" height="60" rx="10" ry="10" />
        <rect class="node-light" x="240" y="90" width="60" height="60" rx="10" ry="10" />

        <!-- Connections -->
        <!-- Left to right horizontal connection -->
        <path class="path-light" d="M190 280 L240 280" />
        <polygon class="arrow-light" points="236,274 246,280 236,286" />

        <!-- Bottom left to top left -->
        <path class="path-light" d="M160 250 L160 200" />

        <!-- Top left to top right -->
        <path class="path-light" d="M190 170 L240 170 L240 150" />

        <!-- Top right to bottom right -->
        <path class="path-light" d="M270 150 L270 200 L270 250" />
    </g>

    <!-- Dark mode elements -->
    <g class="dark-mode">
        <!-- Rounded square background -->
        <rect class="bg-dark" x="20" y="20" width="360" height="360" rx="70" ry="70" />
        <!-- Border -->
        <rect class="border-dark" x="20" y="20" width="360" height="360" rx="70" ry="70" />

        <!-- Node boxes -->
        <rect class="node-dark" x="130" y="250" width="60" height="60" rx="10" ry="10" />
        <rect class="node-dark" x="240" y="250" width="60" height="60" rx="10" ry="10" />
        <rect class="node-dark" x="130" y="140" width="60" height="60" rx="10" ry="10" />
        <rect class="node-dark" x="240" y="90" width="60" height="60" rx="10" ry="10" />

        <!-- Connections -->
        <!-- Left to right horizontal connection -->
        <path class="path-dark" d="M190 280 L240 280" />
        <polygon class="arrow-dark" points="236,274 246,280 236,286" />

        <!-- Bottom left to top left -->
        <path class="path-dark" d="M160 250 L160 200" />

        <!-- Top left to top right -->
        <path class="path-dark" d="M190 170 L240 170 L240 150" />

        <!-- Top right to bottom right -->
        <path class="path-dark" d="M270 150 L270 200 L270 250" />
    </g>
</svg>