<svg xmlns="http://www.w3.org/2000/svg" viewBox="0 0 400 400">
    <!-- Gradient definitions -->
    <defs>
        <linearGradient id="bgGradient" x1="0%" y1="0%" x2="100%" y2="100%">
            <stop offset="0%" stop-color="#6a9bff" />
            <stop offset="100%" stop-color="#3b77e6" />
        </linearGradient>
        <linearGradient id="nodeGradient" x1="0%" y1="0%" x2="100%" y2="100%">
            <stop offset="0%" stop-color="#ffffff" />
            <stop offset="100%" stop-color="#f0f4ff" />
        </linearGradient>
        <filter id="dropShadow" x="-20%" y="-20%" width="140%" height="140%">
            <feGaussianBlur in="SourceAlpha" stdDeviation="6" />
            <feOffset dx="2" dy="2" result="offsetblur" />
            <feComponentTransfer>
                <feFuncA type="linear" slope="0.3" />
            </feComponentTransfer>
            <feMerge>
                <feMergeNode />
                <feMergeNode in="SourceGraphic" />
            </feMerge>
        </filter>
    </defs>

    <!-- Bright background -->
    <rect fill="url(#bgGradient)" x="20" y="20" width="360" height="360" rx="70" ry="70" filter="url(#dropShadow)" />

    <!-- Subtle border glow -->
    <rect fill="none" stroke="#ffffff" stroke-width="6" stroke-opacity="0.5" x="26" y="26" width="348" height="348" rx="64" ry="64" />

    <!-- Node boxes with shadow -->
    <rect fill="url(#nodeGradient)" x="130" y="250" width="60" height="60" rx="12" ry="12" filter="url(#dropShadow)" />
    <rect fill="url(#nodeGradient)" x="240" y="250" width="60" height="60" rx="12" ry="12" filter="url(#dropShadow)" />
    <rect fill="url(#nodeGradient)" x="130" y="140" width="60" height="60" rx="12" ry="12" filter="url(#dropShadow)" />
    <rect fill="url(#nodeGradient)" x="240" y="90" width="60" height="60" rx="12" ry="12" filter="url(#dropShadow)" />

    <!-- Connections -->
    <!-- Left to right horizontal connection -->
    <path fill="none" stroke="#ffffff" stroke-width="4" stroke-dasharray="8 4" d="M190 280 L240 280" />
    <polygon fill="#ffffff" points="236,274 246,280 236,286" />

    <!-- Bottom left to top left -->
    <path fill="none" stroke="#ffffff" stroke-width="4" stroke-dasharray="8 4" d="M160 250 L160 200" />

    <!-- Top left to top right -->
    <path fill="none" stroke="#ffffff" stroke-width="4" stroke-dasharray="8 4" d="M190 170 L240 170 L240 150" />

    <!-- Top right to bottom right -->
    <path fill="none" stroke="#ffffff" stroke-width="4" stroke-dasharray="8 4" d="M270 150 L270 200 L270 250" />

    <!-- Additional glow effects -->
    <circle fill="#ffffff" fill-opacity="0.3" cx="160" cy="280" r="4" />
    <circle fill="#ffffff" fill-opacity="0.3" cx="270" cy="280" r="4" />
    <circle fill="#ffffff" fill-opacity="0.3" cx="160" cy="170" r="4" />
    <circle fill="#ffffff" fill-opacity="0.3" cx="270" cy="120" r="4" />
</svg>